# Blender v2.80 (sub 75) OBJ File: ''
# www.blender.org
mtllib pineTree.mtl
o Cylinder
v 0.025000 0.000603 0.000000
v 0.025000 0.074827 0.000000
v 0.017678 0.000603 0.017678
v 0.017678 0.074827 0.017678
v -0.000000 0.000603 0.025000
v -0.000000 0.074827 0.025000
v -0.017678 0.000603 0.017678
v -0.017678 0.074827 0.017678
v -0.025000 0.000603 -0.000000
v -0.025000 0.074827 -0.000000
v -0.017678 0.000603 -0.017678
v -0.017678 0.074827 -0.017678
v 0.000000 0.000603 -0.025000
v 0.000000 0.074827 -0.025000
v 0.017678 0.000603 -0.017678
v 0.017678 0.074827 -0.017678
v 0.075819 0.075439 0.075819
v 0.107224 0.075439 0.000000
v -0.000000 0.075439 0.107224
v -0.075819 0.075439 0.075819
v -0.107224 0.075439 -0.000000
v -0.075819 0.075439 -0.075819
v 0.000000 0.075439 -0.107224
v 0.075819 0.075439 -0.075819
v 0.009935 0.319131 0.009935
v 0.014050 0.319131 -0.000000
v -0.000000 0.319131 0.014050
v -0.009935 0.319131 0.009935
v -0.014050 0.319131 -0.000000
v -0.009935 0.319131 -0.009935
v 0.000000 0.319131 -0.014050
v 0.009935 0.319131 -0.009935
vt 1.000000 0.500000
vt 1.000000 1.000000
vt 0.875000 1.000000
vt 0.875000 0.500000
vt 0.750000 1.000000
vt 0.750000 0.500000
vt 0.625000 1.000000
vt 0.625000 0.500000
vt 0.500000 1.000000
vt 0.500000 0.500000
vt 0.375000 1.000000
vt 0.375000 0.500000
vt 0.250000 1.000000
vt 0.250000 0.500000
vt 0.375000 1.000000
vt 0.250000 1.000000
vt 0.125000 1.000000
vt 0.125000 0.500000
vt 0.000000 1.000000
vt 0.000000 0.500000
vt 0.750000 0.490000
vt 0.919706 0.419706
vt 0.990000 0.250000
vt 0.919706 0.080294
vt 0.750000 0.010000
vt 0.580294 0.080294
vt 0.510000 0.250000
vt 0.580294 0.419706
vt 0.500000 1.000000
vt 0.500000 1.000000
vt 0.375000 1.000000
vt 0.625000 1.000000
vt 0.125000 1.000000
vt 0.875000 1.000000
vt 0.750000 1.000000
vt 0.000000 1.000000
vt 1.000000 1.000000
vt 0.419706 0.419706
vt 0.250000 0.490000
vt 0.080294 0.419706
vt 0.010000 0.250000
vt 0.080294 0.080294
vt 0.250000 0.010000
vt 0.419706 0.080294
vt 0.490000 0.250000
vt 0.750000 1.000000
vt 0.625000 1.000000
vt 1.000000 1.000000
vt 0.875000 1.000000
vt 0.125000 1.000000
vt 0.000000 1.000000
vt 0.250000 1.000000
vn 0.9239 0.0000 0.3827
vn 0.3827 0.0000 0.9239
vn -0.3827 0.0000 0.9239
vn -0.9239 0.0000 0.3827
vn -0.9239 0.0000 -0.3827
vn -0.3827 0.0000 -0.9239
vn -0.0031 -1.0000 -0.0074
vn 0.3827 0.0000 -0.9239
vn 0.9239 0.0000 -0.3827
vn 0.0000 -1.0000 0.0000
vn -0.8711 0.3331 -0.3608
vn -0.0074 -1.0000 0.0031
vn 0.0031 -1.0000 -0.0074
vn 0.0031 -1.0000 0.0074
vn -0.0074 -1.0000 -0.0031
vn 0.0074 -1.0000 -0.0031
vn 0.0074 -1.0000 0.0031
vn -0.0031 -1.0000 0.0074
vn 0.0000 1.0000 0.0000
vn -0.3608 0.3331 0.8711
vn 0.8711 0.3331 0.3608
vn 0.8711 0.3331 -0.3608
vn -0.3608 0.3331 -0.8711
vn -0.8711 0.3331 0.3608
vn 0.3608 0.3331 0.8711
vn 0.3608 0.3331 -0.8711
usemtl None
s off
f 1/1/1 2/2/1 4/3/1 3/4/1
f 3/4/2 4/3/2 6/5/2 5/6/2
f 5/6/3 6/5/3 8/7/3 7/8/3
f 7/8/4 8/7/4 10/9/4 9/10/4
f 9/10/5 10/9/5 12/11/5 11/12/5
f 11/12/6 12/11/6 14/13/6 13/14/6
f 14/13/7 12/11/7 22/15/7 23/16/7
f 13/14/8 14/13/8 16/17/8 15/18/8
f 15/18/9 16/17/9 2/19/9 1/20/9
f 1/21/10 3/22/10 5/23/10 7/24/10 9/25/10 11/26/10 13/27/10 15/28/10
f 22/15/11 21/29/11 29/30/11 30/31/11
f 10/9/12 8/7/12 20/32/12 21/29/12
f 16/17/13 14/13/13 23/16/13 24/33/13
f 6/5/14 4/3/14 17/34/14 19/35/14
f 12/11/15 10/9/15 21/29/15 22/15/15
f 2/19/16 16/17/16 24/33/16 18/36/16
f 4/3/17 2/2/17 18/37/17 17/34/17
f 8/7/18 6/5/18 19/35/18 20/32/18
f 25/38/19 26/39/19 32/40/19 31/41/19 30/42/19 29/43/19 28/44/19 27/45/19
f 20/32/20 19/35/20 27/46/20 28/47/20
f 17/34/21 18/37/21 26/48/21 25/49/21
f 18/36/22 24/33/22 32/50/22 26/51/22
f 23/16/23 22/15/23 30/31/23 31/52/23
f 21/29/24 20/32/24 28/47/24 29/30/24
f 19/35/25 17/34/25 25/49/25 27/46/25
f 24/33/26 23/16/26 31/52/26 32/50/26
