# Blender v3.0.0 OBJ File: 'well.blend'
# www.blender.org
mtllib well.mtl
o Cylinder
v 1.000000 0.010368 0.000000
v 1.000000 1.010368 0.000000
v 0.809017 0.010368 0.587785
v 0.809017 1.010368 0.587785
v 0.309017 0.010368 0.951057
v 0.309017 1.010368 0.951057
v -0.309017 0.010368 0.951056
v -0.309017 1.010368 0.951056
v -0.809017 0.010368 0.587785
v -0.809017 1.010368 0.587785
v -1.000000 0.010368 -0.000000
v -1.000000 1.010368 -0.000000
v -0.809017 0.010368 -0.587785
v -0.809017 1.010368 -0.587785
v -0.309017 0.010368 -0.951056
v -0.309017 1.010368 -0.951056
v 0.309017 0.010368 -0.951056
v 0.309017 1.010368 -0.951056
v 0.809017 0.010368 -0.587785
v 0.809017 1.010368 -0.587785
v 0.796122 0.181864 0.000000
v 0.644076 0.181864 0.467949
v 0.593482 1.073904 0.431190
v 0.733584 1.073904 0.000000
v 0.246015 0.181864 0.757157
v 0.226690 1.073904 0.697680
v -0.246015 0.181864 0.757157
v -0.226690 1.073904 0.697680
v -0.644076 0.181864 0.467949
v -0.593482 1.073904 0.431190
v -0.796122 0.181864 -0.000000
v -0.733584 1.073904 -0.000000
v -0.644076 0.181864 -0.467949
v -0.593482 1.073904 -0.431190
v -0.246015 0.181864 -0.757157
v -0.226690 1.073904 -0.697680
v 0.246015 0.181864 -0.757157
v 0.226690 1.073904 -0.697680
v 0.644076 0.181864 -0.467949
v 0.593482 1.073904 -0.431190
vt 1.000000 0.500000
vt 0.900000 0.500000
vt 0.900000 1.000000
vt 1.000000 1.000000
vt 0.800000 0.500000
vt 0.800000 1.000000
vt 0.700000 0.500000
vt 0.700000 1.000000
vt 0.600000 0.500000
vt 0.600000 1.000000
vt 0.500000 0.500000
vt 0.500000 1.000000
vt 0.400000 0.500000
vt 0.400000 1.000000
vt 0.300000 0.500000
vt 0.300000 1.000000
vt 0.200000 0.500000
vt 0.200000 1.000000
vt 1.000000 0.500000
vt 1.000000 1.000000
vt 0.900000 1.000000
vt 0.900000 0.500000
vt 0.100000 0.500000
vt 0.100000 1.000000
vt -0.000000 0.500000
vt -0.000000 1.000000
vt 0.750000 0.490000
vt 0.608932 0.444164
vt 0.521746 0.324164
vt 0.521746 0.175836
vt 0.608932 0.055836
vt 0.750000 0.010000
vt 0.891068 0.055836
vt 0.978254 0.175836
vt 0.978254 0.324164
vt 0.891068 0.444164
vt 0.800000 1.000000
vt 0.800000 0.500000
vt 0.700000 1.000000
vt 0.700000 0.500000
vt 0.600000 1.000000
vt 0.600000 0.500000
vt 0.500000 1.000000
vt 0.500000 0.500000
vt 0.400000 1.000000
vt 0.400000 0.500000
vt 0.300000 1.000000
vt 0.300000 0.500000
vt 0.200000 1.000000
vt 0.200000 0.500000
vt 0.100000 1.000000
vt 0.100000 0.500000
vt -0.000000 1.000000
vt -0.000000 0.500000
vt 0.750000 0.490000
vt 0.891068 0.444164
vt 0.978254 0.324164
vt 0.978254 0.175836
vt 0.891068 0.055836
vt 0.750000 0.010000
vt 0.608932 0.055836
vt 0.521746 0.175836
vt 0.521746 0.324164
vt 0.608932 0.444164
vn -0.9511 0.0000 -0.3090
vn -0.5878 0.0000 -0.8090
vn 0.0000 0.0000 -1.0000
vn 0.5878 0.0000 -0.8090
vn 0.9511 0.0000 -0.3090
vn 0.9511 0.0000 0.3090
vn 0.5878 0.0000 0.8090
vn 0.0000 0.0000 1.0000
vn 0.9489 0.0665 0.3083
vn -0.5878 0.0000 0.8090
vn -0.9511 0.0000 0.3090
vn 0.0000 1.0000 0.0000
vn 0.5865 0.0665 0.8072
vn 0.0000 0.0665 0.9978
vn -0.5865 0.0665 0.8072
vn -0.9489 0.0665 0.3083
vn -0.9489 0.0665 -0.3083
vn -0.5865 0.0665 -0.8072
vn 0.0000 0.0665 -0.9978
vn 0.5865 0.0665 -0.8072
vn 0.9489 0.0665 -0.3083
vn 0.0000 -1.0000 0.0000
vn -0.1430 -0.9700 -0.1968
vn -0.2313 -0.9700 0.0752
vn -0.1430 -0.9700 0.1968
vn 0.0000 -0.9700 0.2432
vn 0.1430 -0.9700 0.1968
vn 0.2313 -0.9700 0.0752
vn 0.2313 -0.9700 -0.0752
vn 0.1430 -0.9700 -0.1968
vn -0.2313 -0.9700 -0.0752
vn 0.0000 -0.9700 -0.2432
usemtl None
s off
f 1/1/1 3/2/1 4/3/1 2/4/1
f 3/2/2 5/5/2 6/6/2 4/3/2
f 5/5/3 7/7/3 8/8/3 6/6/3
f 7/7/4 9/9/4 10/10/4 8/8/4
f 9/9/5 11/11/5 12/12/5 10/10/5
f 11/11/6 13/13/6 14/14/6 12/12/6
f 13/13/7 15/15/7 16/16/7 14/14/7
f 15/15/8 17/17/8 18/18/8 16/16/8
f 21/19/9 24/20/9 23/21/9 22/22/9
f 17/17/10 19/23/10 20/24/10 18/18/10
f 19/23/11 1/25/11 2/26/11 20/24/11
f 1/27/12 19/28/12 17/29/12 15/30/12 13/31/12 11/32/12 9/33/12 7/34/12 5/35/12 3/36/12
f 22/22/13 23/21/13 26/37/13 25/38/13
f 25/38/14 26/37/14 28/39/14 27/40/14
f 27/40/15 28/39/15 30/41/15 29/42/15
f 29/42/16 30/41/16 32/43/16 31/44/16
f 31/44/17 32/43/17 34/45/17 33/46/17
f 33/46/18 34/45/18 36/47/18 35/48/18
f 35/48/19 36/47/19 38/49/19 37/50/19
f 37/50/20 38/49/20 40/51/20 39/52/20
f 39/52/21 40/51/21 24/53/21 21/54/21
f 21/55/22 22/56/22 25/57/22 27/58/22 29/59/22 31/60/22 33/61/22 35/62/22 37/63/22 39/64/22
f 4/3/23 6/6/23 26/37/23 23/21/23
f 20/24/24 2/26/24 24/53/24 40/51/24
f 18/18/25 20/24/25 40/51/25 38/49/25
f 16/16/26 18/18/26 38/49/26 36/47/26
f 14/14/27 16/16/27 36/47/27 34/45/27
f 12/12/28 14/14/28 34/45/28 32/43/28
f 10/10/29 12/12/29 32/43/29 30/41/29
f 8/8/30 10/10/30 30/41/30 28/39/30
f 2/4/31 4/3/31 23/21/31 24/20/31
f 6/6/32 8/8/32 28/39/32 26/37/32
o Cylinder.001
v 0.150000 0.027710 0.540000
v 0.150000 2.027710 0.540000
v 0.121353 0.027710 0.628168
v 0.121353 2.027710 0.628168
v 0.046353 0.027710 0.682658
v 0.046353 2.027710 0.682658
v -0.046353 0.027710 0.682658
v -0.046353 2.027710 0.682658
v -0.121353 0.027710 0.628168
v -0.121353 2.027710 0.628168
v -0.150000 0.027710 0.540000
v -0.150000 2.027710 0.540000
v -0.121353 0.027710 0.451832
v -0.121353 2.027710 0.451832
v -0.046353 0.027710 0.397342
v -0.046353 2.027710 0.397342
v 0.046353 0.027710 0.397342
v 0.046353 2.027710 0.397342
v 0.121353 0.027710 0.451832
v 0.121353 2.027710 0.451832
vt 1.000000 0.500000
vt 1.000000 1.000000
vt 0.900000 1.000000
vt 0.900000 0.500000
vt 0.800000 1.000000
vt 0.800000 0.500000
vt 0.700000 1.000000
vt 0.700000 0.500000
vt 0.600000 1.000000
vt 0.600000 0.500000
vt 0.500000 1.000000
vt 0.500000 0.500000
vt 0.400000 1.000000
vt 0.400000 0.500000
vt 0.300000 1.000000
vt 0.300000 0.500000
vt 0.200000 1.000000
vt 0.200000 0.500000
vt 0.391068 0.444164
vt 0.250000 0.490000
vt 0.108932 0.444164
vt 0.021746 0.324164
vt 0.021746 0.175836
vt 0.108932 0.055836
vt 0.250000 0.010000
vt 0.391068 0.055836
vt 0.478254 0.175836
vt 0.478254 0.324164
vt 0.100000 1.000000
vt 0.100000 0.500000
vt -0.000000 1.000000
vt -0.000000 0.500000
vt 0.750000 0.490000
vt 0.891068 0.444164
vt 0.978254 0.324164
vt 0.978254 0.175836
vt 0.891068 0.055836
vt 0.750000 0.010000
vt 0.608932 0.055836
vt 0.521746 0.175836
vt 0.521746 0.324164
vt 0.608932 0.444164
vn 0.9511 0.0000 0.3090
vn 0.5878 0.0000 0.8090
vn 0.0000 0.0000 1.0000
vn -0.5878 0.0000 0.8090
vn -0.9511 0.0000 0.3090
vn -0.9511 0.0000 -0.3090
vn -0.5878 0.0000 -0.8090
vn 0.0000 0.0000 -1.0000
vn 0.0000 1.0000 0.0000
vn 0.5878 0.0000 -0.8090
vn 0.9511 0.0000 -0.3090
vn 0.0000 -1.0000 0.0000
usemtl None
s off
f 41/65/33 42/66/33 44/67/33 43/68/33
f 43/68/34 44/67/34 46/69/34 45/70/34
f 45/70/35 46/69/35 48/71/35 47/72/35
f 47/72/36 48/71/36 50/73/36 49/74/36
f 49/74/37 50/73/37 52/75/37 51/76/37
f 51/76/38 52/75/38 54/77/38 53/78/38
f 53/78/39 54/77/39 56/79/39 55/80/39
f 55/80/40 56/79/40 58/81/40 57/82/40
f 44/83/41 42/84/41 60/85/41 58/86/41 56/87/41 54/88/41 52/89/41 50/90/41 48/91/41 46/92/41
f 57/82/42 58/81/42 60/93/42 59/94/42
f 59/94/43 60/93/43 42/95/43 41/96/43
f 41/97/44 43/98/44 45/99/44 47/100/44 49/101/44 51/102/44 53/103/44 55/104/44 57/105/44 59/106/44
o Cylinder.002
v 0.150000 0.027710 -0.540000
v 0.150000 2.027710 -0.540000
v 0.121353 0.027710 -0.451832
v 0.121353 2.027710 -0.451832
v 0.046353 0.027710 -0.397342
v 0.046353 2.027710 -0.397342
v -0.046353 0.027710 -0.397342
v -0.046353 2.027710 -0.397342
v -0.121353 0.027710 -0.451832
v -0.121353 2.027710 -0.451832
v -0.150000 0.027710 -0.540000
v -0.150000 2.027710 -0.540000
v -0.121353 0.027710 -0.628168
v -0.121353 2.027710 -0.628168
v -0.046353 0.027710 -0.682658
v -0.046353 2.027710 -0.682658
v 0.046353 0.027710 -0.682658
v 0.046353 2.027710 -0.682658
v 0.121353 0.027710 -0.628168
v 0.121353 2.027710 -0.628168
vt 1.000000 0.500000
vt 1.000000 1.000000
vt 0.900000 1.000000
vt 0.900000 0.500000
vt 0.800000 1.000000
vt 0.800000 0.500000
vt 0.700000 1.000000
vt 0.700000 0.500000
vt 0.600000 1.000000
vt 0.600000 0.500000
vt 0.500000 1.000000
vt 0.500000 0.500000
vt 0.400000 1.000000
vt 0.400000 0.500000
vt 0.300000 1.000000
vt 0.300000 0.500000
vt 0.200000 1.000000
vt 0.200000 0.500000
vt 0.391068 0.444164
vt 0.250000 0.490000
vt 0.108932 0.444164
vt 0.021746 0.324164
vt 0.021746 0.175836
vt 0.108932 0.055836
vt 0.250000 0.010000
vt 0.391068 0.055836
vt 0.478254 0.175836
vt 0.478254 0.324164
vt 0.100000 1.000000
vt 0.100000 0.500000
vt -0.000000 1.000000
vt -0.000000 0.500000
vt 0.750000 0.490000
vt 0.891068 0.444164
vt 0.978254 0.324164
vt 0.978254 0.175836
vt 0.891068 0.055836
vt 0.750000 0.010000
vt 0.608932 0.055836
vt 0.521746 0.175836
vt 0.521746 0.324164
vt 0.608932 0.444164
vn 0.9511 0.0000 0.3090
vn 0.5878 0.0000 0.8090
vn 0.0000 0.0000 1.0000
vn -0.5878 0.0000 0.8090
vn -0.9511 0.0000 0.3090
vn -0.9511 0.0000 -0.3090
vn -0.5878 0.0000 -0.8090
vn 0.0000 0.0000 -1.0000
vn 0.0000 1.0000 0.0000
vn 0.5878 0.0000 -0.8090
vn 0.9511 0.0000 -0.3090
vn 0.0000 -1.0000 0.0000
usemtl None
s off
f 61/107/45 62/108/45 64/109/45 63/110/45
f 63/110/46 64/109/46 66/111/46 65/112/46
f 65/112/47 66/111/47 68/113/47 67/114/47
f 67/114/48 68/113/48 70/115/48 69/116/48
f 69/116/49 70/115/49 72/117/49 71/118/49
f 71/118/50 72/117/50 74/119/50 73/120/50
f 73/120/51 74/119/51 76/121/51 75/122/51
f 75/122/52 76/121/52 78/123/52 77/124/52
f 64/125/53 62/126/53 80/127/53 78/128/53 76/129/53 74/130/53 72/131/53 70/132/53 68/133/53 66/134/53
f 77/124/54 78/123/54 80/135/54 79/136/54
f 79/136/55 80/135/55 62/137/55 61/138/55
f 61/139/56 63/140/56 65/141/56 67/142/56 69/143/56 71/144/56 73/145/56 75/146/56 77/147/56 79/148/56
o Cone
v 1.200000 1.688364 0.000000
v 0.970820 1.688364 0.705342
v 0.370820 1.688364 1.141268
v -0.370820 1.688364 1.141268
v -0.970820 1.688364 0.705342
v -1.200000 1.688364 -0.000000
v -0.970820 1.688364 -0.705342
v -0.370821 1.688364 -1.141268
v 0.370821 1.688364 -1.141268
v 0.970820 1.688364 -0.705342
v 0.000000 2.688364 0.000000
vt 0.250000 0.490000
vt 0.250000 0.250000
vt 0.391068 0.444164
vt 0.478254 0.324164
vt 0.478254 0.175836
vt 0.391068 0.055836
vt 0.250000 0.010000
vt 0.108932 0.055836
vt 0.021746 0.175836
vt 0.021746 0.324164
vt 0.750000 0.490000
vt 0.891068 0.444164
vt 0.978254 0.324164
vt 0.978254 0.175836
vt 0.891068 0.055836
vt 0.750000 0.010000
vt 0.608932 0.055836
vt 0.521746 0.175836
vt 0.521746 0.324164
vt 0.608932 0.444164
vt 0.108932 0.444164
vn 0.6268 0.7521 0.2036
vn 0.3874 0.7521 0.5332
vn -0.0000 0.7521 0.6590
vn -0.3874 0.7521 0.5332
vn -0.6268 0.7521 0.2036
vn -0.6268 0.7521 -0.2036
vn -0.3874 0.7521 -0.5332
vn 0.0000 0.7521 -0.6590
vn 0.0000 -1.0000 0.0000
vn 0.3874 0.7521 -0.5332
vn 0.6268 0.7521 -0.2036
usemtl None
s off
f 81/149/57 91/150/57 82/151/57
f 82/151/58 91/150/58 83/152/58
f 83/152/59 91/150/59 84/153/59
f 84/153/60 91/150/60 85/154/60
f 85/154/61 91/150/61 86/155/61
f 86/155/62 91/150/62 87/156/62
f 87/156/63 91/150/63 88/157/63
f 88/157/64 91/150/64 89/158/64
f 81/159/65 82/160/65 83/161/65 84/162/65 85/163/65 86/164/65 87/165/65 88/166/65 89/167/65 90/168/65
f 89/158/66 91/150/66 90/169/66
f 90/169/67 91/150/67 81/149/67
